<mxfile host="app.diagrams.net" modified="2022-08-27T09:26:43.788Z" agent="5.0 (Windows NT 10.0; Win64; x64) AppleWebKit/537.36 (KHTML, like Gecko) Chrome/103.0.0.0 Safari/537.36" etag="zbtar2P8aKTijf_N8HXf" version="20.2.5" type="github">
  <diagram id="qQxw4SJgSMcntZW8fe44" name="페이지-1">
    <mxGraphModel dx="460" dy="752" grid="1" gridSize="10" guides="1" tooltips="1" connect="1" arrows="1" fold="1" page="1" pageScale="1" pageWidth="827" pageHeight="1169" math="0" shadow="0">
      <root>
        <mxCell id="0" />
        <mxCell id="1" parent="0" />
        <mxCell id="E8wUH-rCsuqML8c71dur-24" style="edgeStyle=orthogonalEdgeStyle;rounded=0;orthogonalLoop=1;jettySize=auto;html=1;exitX=0.5;exitY=1;exitDx=0;exitDy=0;entryX=0;entryY=0.5;entryDx=0;entryDy=0;fontSize=13;" edge="1" parent="1" source="E8wUH-rCsuqML8c71dur-1" target="E8wUH-rCsuqML8c71dur-17">
          <mxGeometry relative="1" as="geometry" />
        </mxCell>
        <mxCell id="E8wUH-rCsuqML8c71dur-38" value="" style="rounded=0;whiteSpace=wrap;html=1;fontSize=18;" vertex="1" parent="1">
          <mxGeometry x="60" y="325" width="110" height="80" as="geometry" />
        </mxCell>
        <mxCell id="E8wUH-rCsuqML8c71dur-32" style="edgeStyle=orthogonalEdgeStyle;rounded=0;orthogonalLoop=1;jettySize=auto;html=1;fontSize=13;entryX=1;entryY=0.5;entryDx=0;entryDy=0;" edge="1" parent="1" source="E8wUH-rCsuqML8c71dur-19" target="E8wUH-rCsuqML8c71dur-12">
          <mxGeometry relative="1" as="geometry">
            <mxPoint x="660" y="260" as="targetPoint" />
            <Array as="points">
              <mxPoint x="790" y="577" />
              <mxPoint x="790" y="240" />
            </Array>
          </mxGeometry>
        </mxCell>
        <mxCell id="E8wUH-rCsuqML8c71dur-34" style="edgeStyle=orthogonalEdgeStyle;rounded=0;orthogonalLoop=1;jettySize=auto;html=1;exitX=1;exitY=0.5;exitDx=0;exitDy=0;fontSize=13;" edge="1" parent="1" source="E8wUH-rCsuqML8c71dur-19">
          <mxGeometry relative="1" as="geometry">
            <mxPoint x="760" y="370" as="targetPoint" />
            <Array as="points">
              <mxPoint x="790" y="577" />
              <mxPoint x="790" y="370" />
            </Array>
          </mxGeometry>
        </mxCell>
        <mxCell id="E8wUH-rCsuqML8c71dur-19" value="ZooKeeper" style="rounded=0;whiteSpace=wrap;html=1;fontSize=18;" vertex="1" parent="1">
          <mxGeometry x="323" y="547" width="160" height="60" as="geometry" />
        </mxCell>
        <mxCell id="E8wUH-rCsuqML8c71dur-18" value="ZooKeeper" style="rounded=0;whiteSpace=wrap;html=1;fontSize=18;" vertex="1" parent="1">
          <mxGeometry x="313" y="537" width="160" height="60" as="geometry" />
        </mxCell>
        <mxCell id="E8wUH-rCsuqML8c71dur-31" style="edgeStyle=orthogonalEdgeStyle;rounded=0;orthogonalLoop=1;jettySize=auto;html=1;exitX=0.5;exitY=1;exitDx=0;exitDy=0;entryX=0.625;entryY=-0.017;entryDx=0;entryDy=0;entryPerimeter=0;fontSize=13;" edge="1" parent="1" source="E8wUH-rCsuqML8c71dur-16" target="E8wUH-rCsuqML8c71dur-17">
          <mxGeometry relative="1" as="geometry" />
        </mxCell>
        <mxCell id="E8wUH-rCsuqML8c71dur-16" value="" style="rounded=0;whiteSpace=wrap;html=1;fontSize=18;verticalAlign=top;" vertex="1" parent="1">
          <mxGeometry x="290" y="140" width="226" height="320" as="geometry" />
        </mxCell>
        <mxCell id="E8wUH-rCsuqML8c71dur-15" value="" style="rounded=0;whiteSpace=wrap;html=1;fontSize=18;verticalAlign=top;" vertex="1" parent="1">
          <mxGeometry x="280" y="130" width="226" height="320" as="geometry" />
        </mxCell>
        <mxCell id="E8wUH-rCsuqML8c71dur-1" value="&lt;b&gt;&lt;font style=&quot;font-size: 18px;&quot;&gt;Producer&lt;/font&gt;&lt;/b&gt;" style="rounded=1;whiteSpace=wrap;html=1;" vertex="1" parent="1">
          <mxGeometry x="75" y="225" width="90" height="30" as="geometry" />
        </mxCell>
        <mxCell id="E8wUH-rCsuqML8c71dur-2" value="&lt;b&gt;&lt;font style=&quot;font-size: 18px;&quot;&gt;Producer&lt;/font&gt;&lt;/b&gt;" style="rounded=1;whiteSpace=wrap;html=1;" vertex="1" parent="1">
          <mxGeometry x="70" y="330" width="90" height="30" as="geometry" />
        </mxCell>
        <mxCell id="E8wUH-rCsuqML8c71dur-3" value="&lt;b&gt;&lt;font style=&quot;font-size: 18px;&quot;&gt;Producer&lt;/font&gt;&lt;/b&gt;" style="rounded=1;whiteSpace=wrap;html=1;" vertex="1" parent="1">
          <mxGeometry x="70" y="365" width="90" height="30" as="geometry" />
        </mxCell>
        <mxCell id="E8wUH-rCsuqML8c71dur-4" value="Message Borker&lt;br&gt;(Kafka Server)" style="rounded=0;whiteSpace=wrap;html=1;fontSize=18;verticalAlign=top;" vertex="1" parent="1">
          <mxGeometry x="270" y="120" width="226" height="320" as="geometry" />
        </mxCell>
        <mxCell id="E8wUH-rCsuqML8c71dur-5" value="Topic A" style="rounded=0;whiteSpace=wrap;html=1;fontSize=18;verticalAlign=top;" vertex="1" parent="1">
          <mxGeometry x="298" y="180" width="170" height="120" as="geometry" />
        </mxCell>
        <mxCell id="E8wUH-rCsuqML8c71dur-7" value="Partition 1" style="rounded=0;whiteSpace=wrap;html=1;fontSize=18;" vertex="1" parent="1">
          <mxGeometry x="308" y="220" width="150" height="30" as="geometry" />
        </mxCell>
        <mxCell id="E8wUH-rCsuqML8c71dur-8" value="Partition 2" style="rounded=0;whiteSpace=wrap;html=1;fontSize=18;" vertex="1" parent="1">
          <mxGeometry x="308" y="260" width="150" height="30" as="geometry" />
        </mxCell>
        <mxCell id="E8wUH-rCsuqML8c71dur-9" value="Topic B" style="rounded=0;whiteSpace=wrap;html=1;fontSize=18;verticalAlign=top;" vertex="1" parent="1">
          <mxGeometry x="300" y="310" width="170" height="120" as="geometry" />
        </mxCell>
        <mxCell id="E8wUH-rCsuqML8c71dur-10" value="Partition 1" style="rounded=0;whiteSpace=wrap;html=1;fontSize=18;" vertex="1" parent="1">
          <mxGeometry x="310" y="350" width="150" height="30" as="geometry" />
        </mxCell>
        <mxCell id="E8wUH-rCsuqML8c71dur-11" value="Partition 2" style="rounded=0;whiteSpace=wrap;html=1;fontSize=18;" vertex="1" parent="1">
          <mxGeometry x="310" y="390" width="150" height="30" as="geometry" />
        </mxCell>
        <mxCell id="E8wUH-rCsuqML8c71dur-26" style="edgeStyle=orthogonalEdgeStyle;rounded=0;orthogonalLoop=1;jettySize=auto;html=1;entryX=1;entryY=0.5;entryDx=0;entryDy=0;fontSize=13;" edge="1" parent="1" source="E8wUH-rCsuqML8c71dur-12" target="E8wUH-rCsuqML8c71dur-5">
          <mxGeometry relative="1" as="geometry" />
        </mxCell>
        <mxCell id="E8wUH-rCsuqML8c71dur-12" value="&lt;b&gt;&lt;font style=&quot;font-size: 18px;&quot;&gt;Consumer&lt;/font&gt;&lt;/b&gt;" style="rounded=1;whiteSpace=wrap;html=1;" vertex="1" parent="1">
          <mxGeometry x="610" y="225" width="100" height="30" as="geometry" />
        </mxCell>
        <mxCell id="E8wUH-rCsuqML8c71dur-28" style="edgeStyle=orthogonalEdgeStyle;rounded=0;orthogonalLoop=1;jettySize=auto;html=1;entryX=1;entryY=0.5;entryDx=0;entryDy=0;fontSize=13;" edge="1" parent="1" target="E8wUH-rCsuqML8c71dur-9">
          <mxGeometry relative="1" as="geometry">
            <mxPoint x="610" y="370" as="sourcePoint" />
          </mxGeometry>
        </mxCell>
        <mxCell id="E8wUH-rCsuqML8c71dur-17" value="ZooKeeper" style="rounded=0;whiteSpace=wrap;html=1;fontSize=18;" vertex="1" parent="1">
          <mxGeometry x="303" y="527" width="160" height="60" as="geometry" />
        </mxCell>
        <mxCell id="E8wUH-rCsuqML8c71dur-20" style="rounded=0;orthogonalLoop=1;jettySize=auto;html=1;entryX=0;entryY=0.5;entryDx=0;entryDy=0;fontSize=18;exitX=1;exitY=0.5;exitDx=0;exitDy=0;" edge="1" parent="1" source="E8wUH-rCsuqML8c71dur-1" target="E8wUH-rCsuqML8c71dur-5">
          <mxGeometry relative="1" as="geometry" />
        </mxCell>
        <mxCell id="E8wUH-rCsuqML8c71dur-22" value="&lt;font style=&quot;font-size: 13px;&quot;&gt;Push message&lt;/font&gt;" style="text;html=1;align=center;verticalAlign=middle;resizable=0;points=[];autosize=1;strokeColor=none;fillColor=none;fontSize=18;" vertex="1" parent="1">
          <mxGeometry x="165" y="205" width="110" height="40" as="geometry" />
        </mxCell>
        <mxCell id="E8wUH-rCsuqML8c71dur-25" value="Get kafka broker Id" style="text;html=1;align=center;verticalAlign=middle;resizable=0;points=[];autosize=1;strokeColor=none;fillColor=none;fontSize=13;" vertex="1" parent="1">
          <mxGeometry x="145" y="530" width="130" height="30" as="geometry" />
        </mxCell>
        <mxCell id="E8wUH-rCsuqML8c71dur-27" value="Pull message" style="text;html=1;align=center;verticalAlign=middle;resizable=0;points=[];autosize=1;strokeColor=none;fillColor=none;fontSize=13;" vertex="1" parent="1">
          <mxGeometry x="516" y="210" width="100" height="30" as="geometry" />
        </mxCell>
        <mxCell id="E8wUH-rCsuqML8c71dur-29" value="&lt;font style=&quot;font-size: 13px;&quot;&gt;Push message&lt;/font&gt;" style="text;html=1;align=center;verticalAlign=middle;resizable=0;points=[];autosize=1;strokeColor=none;fillColor=none;fontSize=18;" vertex="1" parent="1">
          <mxGeometry x="170" y="350" width="110" height="40" as="geometry" />
        </mxCell>
        <mxCell id="E8wUH-rCsuqML8c71dur-30" value="Pull message" style="text;html=1;align=center;verticalAlign=middle;resizable=0;points=[];autosize=1;strokeColor=none;fillColor=none;fontSize=13;" vertex="1" parent="1">
          <mxGeometry x="510" y="340" width="100" height="30" as="geometry" />
        </mxCell>
        <mxCell id="E8wUH-rCsuqML8c71dur-33" value="Update offset" style="text;html=1;align=center;verticalAlign=middle;resizable=0;points=[];autosize=1;strokeColor=none;fillColor=none;fontSize=13;" vertex="1" parent="1">
          <mxGeometry x="560" y="550" width="100" height="30" as="geometry" />
        </mxCell>
        <mxCell id="E8wUH-rCsuqML8c71dur-35" value="&lt;span style=&quot;font-size: 18px;&quot;&gt;&lt;b&gt;Consumer Group&lt;/b&gt;&lt;/span&gt;" style="rounded=0;whiteSpace=wrap;html=1;fontSize=13;verticalAlign=top;" vertex="1" parent="1">
          <mxGeometry x="610" y="310" width="150" height="120" as="geometry" />
        </mxCell>
        <mxCell id="E8wUH-rCsuqML8c71dur-36" value="&lt;b&gt;&lt;font style=&quot;font-size: 18px;&quot;&gt;Consumer&lt;/font&gt;&lt;/b&gt;" style="rounded=1;whiteSpace=wrap;html=1;" vertex="1" parent="1">
          <mxGeometry x="635" y="350" width="100" height="30" as="geometry" />
        </mxCell>
        <mxCell id="E8wUH-rCsuqML8c71dur-37" value="&lt;b&gt;&lt;font style=&quot;font-size: 18px;&quot;&gt;Consumer&lt;/font&gt;&lt;/b&gt;" style="rounded=1;whiteSpace=wrap;html=1;" vertex="1" parent="1">
          <mxGeometry x="635" y="390" width="100" height="30" as="geometry" />
        </mxCell>
        <mxCell id="E8wUH-rCsuqML8c71dur-39" style="edgeStyle=orthogonalEdgeStyle;rounded=0;orthogonalLoop=1;jettySize=auto;html=1;exitX=1;exitY=0.75;exitDx=0;exitDy=0;entryX=-0.006;entryY=0.625;entryDx=0;entryDy=0;entryPerimeter=0;fontSize=18;" edge="1" parent="1" source="E8wUH-rCsuqML8c71dur-38" target="E8wUH-rCsuqML8c71dur-9">
          <mxGeometry relative="1" as="geometry" />
        </mxCell>
        <mxCell id="E8wUH-rCsuqML8c71dur-40" value="&lt;font style=&quot;font-size: 15px;&quot;&gt;&lt;b&gt;Kafka Cluster 관리&lt;/b&gt;&lt;/font&gt;" style="text;html=1;align=center;verticalAlign=middle;resizable=0;points=[];autosize=1;strokeColor=none;fillColor=none;fontSize=18;" vertex="1" parent="1">
          <mxGeometry x="323" y="607" width="150" height="40" as="geometry" />
        </mxCell>
      </root>
    </mxGraphModel>
  </diagram>
</mxfile>
